<?xml version="1.0" standalone="no"?>
<!DOCTYPE svg PUBLIC "-//W3C//DTD SVG 20010904//EN"
 "http://www.w3.org/TR/2001/REC-SVG-20010904/DTD/svg10.dtd">
<svg version="1.0" xmlns="http://www.w3.org/2000/svg"
 width="930.000000pt" height="508.000000pt" viewBox="0 0 930.000000 508.000000"
 preserveAspectRatio="xMidYMid meet">
<metadata>
Created by potrace 1.16, written by Peter Selinger 2001-2019
</metadata>
<g transform="translate(0.000000,508.000000) scale(0.100000,-0.100000)"
fill="#000000" stroke="none">
<path d="M7595 5051 c-44 -16 -104 -40 -133 -55 l-53 -27 6 45 c9 55 1 57 -51
15 -64 -51 -71 -53 -66 -17 4 30 3 31 -24 24 -71 -16 -173 -78 -240 -143 -188
-184 -286 -447 -271 -723 6 -117 26 -174 88 -257 76 -100 82 -116 75 -195 -7
-81 2 -104 46 -113 63 -14 87 -33 99 -78 24 -91 -8 -186 -92 -268 -75 -73
-136 -99 -235 -99 -81 0 -207 19 -295 45 -83 24 -223 101 -517 283 -585 364
-995 595 -2157 1217 l-645 345 -142 0 c-166 0 -202 -11 -260 -79 -68 -79 -74
-179 -18 -297 44 -91 95 -142 206 -205 271 -155 1554 -799 2086 -1047 206 -97
670 -298 926 -402 l83 -34 -28 -15 c-100 -52 -719 -272 -1068 -380 -661 -203
-945 -236 -1677 -194 -413 23 -878 23 -1028 0 -231 -36 -426 -102 -667 -228
-524 -272 -979 -715 -1434 -1395 -107 -161 -110 -166 -107 -215 l3 -50 114 71
c551 346 1215 620 1911 789 246 60 643 128 855 147 l80 6 -21 -23 c-11 -13
-43 -51 -71 -84 -241 -283 -351 -717 -253 -999 56 -164 139 -261 282 -330 159
-77 209 -86 463 -86 196 0 233 3 340 25 225 47 397 109 945 343 344 146 662
275 794 321 194 68 417 112 575 112 187 1 216 -28 256 -255 31 -178 22 -194
-113 -207 -115 -11 -235 -31 -433 -74 -307 -67 -634 -156 -679 -184 -37 -24
16 -22 208 7 323 50 585 75 1087 104 299 17 1323 17 1560 0 441 -32 948 -84
1136 -117 141 -25 145 -16 14 35 -240 92 -864 230 -1044 230 -28 0 -44 5 -47
15 -16 41 72 543 118 673 39 112 63 153 170 285 120 149 159 229 167 346 3 50
11 95 17 101 25 25 52 -9 69 -84 8 -39 53 -82 101 -96 120 -36 254 95 254 247
0 77 -17 120 -59 156 -37 31 -72 34 -126 11 -35 -14 -42 -14 -89 1 -102 33
-218 119 -293 219 -102 133 -172 204 -347 349 -15 13 2 9 64 -14 310 -113 318
-113 270 -19 -28 54 -26 56 20 20 23 -18 43 -30 46 -27 4 3 -1 27 -10 54 -35
109 -87 333 -93 401 l-6 72 94 -55 c51 -30 96 -55 100 -55 4 0 10 66 13 148
20 430 68 717 157 927 32 76 34 85 19 85 -6 0 -94 -38 -197 -85 l-187 -84 -28
42 c-15 23 -28 51 -28 63 0 11 18 57 40 102 21 45 36 83 32 85 -4 3 -34 12
-67 22 -88 25 -119 43 -105 60 17 21 155 64 240 75 168 21 416 7 544 -31 76
-22 196 -80 317 -152 82 -48 119 -64 119 -49 0 5 -45 60 -100 123 -55 62 -98
114 -96 116 2 2 15 -1 30 -7 15 -5 34 -10 43 -10 14 0 14 2 -2 20 -9 10 -42
36 -71 56 -30 21 -52 39 -50 41 2 3 30 0 62 -6 31 -6 59 -9 62 -7 2 2 -22 25
-54 50 -102 80 -358 202 -559 266 -38 12 -76 25 -84 30 -13 7 28 23 122 45 27
7 35 19 19 29 -5 3 -70 15 -144 26 -157 24 -192 33 -214 54 -11 12 -36 16 -98
16 -46 0 -104 3 -130 6 -40 6 -46 10 -46 30 0 22 -4 24 -47 24 -44 1 -47 2
-29 15 18 13 6 15 -110 14 -114 0 -138 -4 -209 -28z m-1025 -2236 c95 -16 229
-51 242 -64 4 -4 -4 -53 -18 -109 -14 -57 -23 -113 -20 -126 3 -12 21 -42 41
-67 19 -24 35 -49 35 -56 0 -26 -189 -80 -379 -108 -240 -36 -317 -65 -451
-172 -115 -93 -220 -226 -197 -250 7 -6 17 2 150 110 91 75 173 118 226 119
46 0 108 -26 198 -85 98 -63 175 -138 238 -229 62 -90 63 -86 -18 -129 -59
-31 -126 -40 -374 -47 -127 -4 -235 -10 -239 -14 -12 -13 26 -59 61 -74 22 -9
102 -17 225 -22 172 -8 194 -11 220 -31 16 -11 34 -21 40 -21 7 0 40 16 74 35
75 42 93 43 106 9 34 -90 -54 -160 -420 -336 -252 -121 -259 -122 -388 -65
-237 105 -359 244 -383 437 -6 53 -23 117 -44 170 -59 147 -66 207 -39 337 39
191 161 360 314 438 62 31 145 52 260 65 146 15 170 21 170 35 0 17 -39 29
-181 55 -144 27 -151 31 -119 65 35 38 153 106 230 133 60 21 77 23 205 18 77
-3 183 -13 235 -21z m895 -95 c36 -21 75 -33 122 -39 98 -12 165 -53 175 -106
2 -11 17 -27 34 -35 17 -8 49 -30 71 -48 23 -17 56 -35 75 -38 74 -15 118 -58
118 -119 0 -21 -8 -29 -47 -46 -27 -11 -89 -52 -139 -90 -102 -78 -130 -89
-224 -89 -74 0 -90 10 -90 54 0 81 -41 156 -139 254 -47 49 -67 61 -130 81
-68 21 -73 25 -56 37 10 8 22 14 27 14 4 0 8 5 8 11 0 7 -14 8 -42 4 -66 -11
-137 -41 -203 -85 l-59 -39 -33 46 c-25 36 -33 57 -33 90 0 46 23 113 38 113
6 0 34 -11 64 -25 29 -14 67 -25 84 -25 53 0 181 38 251 74 38 20 70 36 72 36
2 0 27 -14 56 -30z m-213 -417 c48 -39 108 -96 108 -104 0 -5 -106 -94 -413
-347 -43 -36 -82 -61 -86 -56 -13 15 -107 167 -125 202 -10 19 -15 39 -13 46
3 7 42 35 88 63 102 62 390 223 400 223 4 0 22 -12 41 -27z"/>
</g>
</svg>
